<svg width="16" height="16" viewBox="0 0 16 16" shape-rendering="geometricPrecision" xmlns="http://www.w3.org/2000/svg" xmlns:xlink="http://www.w3.org/1999/xlink"><path d="M16 0L0 0L0 16L16 16L16 0ZM15 1L1 1L1 15L15 15L15 1ZM3.5 3.75C3.5 3.33579 3.83579 3 4.25 3C4.66421 3 5 3.33579 5 3.75L5 12.25C5 12.6642 4.66421 13 4.25 13C3.83579 13 3.5 12.6642 3.5 12.25L3.5 3.75ZM11.75 3C11.3358 3 11 3.33579 11 3.75L11 12.25C11 12.6642 11.3358 13 11.75 13C12.1642 13 12.5 12.6642 12.5 12.25L12.5 3.75C12.5 3.33579 12.1642 3 11.75 3ZM7 6C7 5.44772 7.44772 5 8 5C8.55228 5 9 5.44772 9 6C9 6.55228 8.55228 7 8 7C7.44772 7 7 6.55228 7 6ZM8 9C7.44772 9 7 9.44771 7 10C7 10.5523 7.44772 11 8 11C8.55228 11 9 10.5523 9 10C9 9.44771 8.55228 9 8 9Z" shape-rendering="geometricPrecision" fill="#000000" style="fill-rule:evenodd" transform="matrix(1 0 0 1 0 0)"></path></svg>