<svg width="16" height="16" viewBox="0 0 16 16" shape-rendering="geometricPrecision" xmlns="http://www.w3.org/2000/svg" xmlns:xlink="http://www.w3.org/1999/xlink"><path d="M16 0L0 0L0 16L16 16L16 0ZM15 1L1 1L1 15L15 15L15 1ZM9.75 2C9.33579 2 9 2.33579 9 2.75C9 3.16421 9.33579 3.5 9.75 3.5L12.5 3.5L12.5 6.25C12.5 6.66421 12.8358 7 13.25 7C13.6642 7 14 6.66421 14 6.25L14 2.75C14 2.33579 13.6642 2 13.25 2L9.75 2ZM11 5L5 5L5 11L11 11L11 5ZM2 9.75C2 9.33579 2.33579 9 2.75 9C3.16421 9 3.5 9.33579 3.5 9.75L3.5 12.5L6.25 12.5C6.66421 12.5 7 12.8358 7 13.25C7 13.6642 6.66421 14 6.25 14L2.75 14C2.33579 14 2 13.6642 2 13.25L2 9.75Z" shape-rendering="geometricPrecision" fill="#000000" style="fill-rule:evenodd" transform="matrix(1 0 0 1 0 0)"></path></svg>