<svg width="16" height="16" viewBox="0 0 16 16" shape-rendering="geometricPrecision" xmlns="http://www.w3.org/2000/svg" xmlns:xlink="http://www.w3.org/1999/xlink"><g><path d="M2 14L2 16L0 16L0 14L2 14ZM16 14L16 16L14 16L14 14L16 14ZM11 14L13 14L13 15L11 15L11 14ZM7 14L10 14L10 15L7 15L7 14ZM3 14L6 14L6 15L3 15L3 14ZM1 10L2 10L2 13L1 13L1 10ZM15 11L15 13L14 13L14 11L15 11ZM15 7L15 10L14 10L14 7L15 7ZM1 6L2 6L2 9L1 9L1 6ZM15 3L15 6L14 6L14 3L15 3ZM1 3L2 3L2 5L1 5L1 3ZM2 0L2 2L0 2L0 0L2 0ZM3 1L5 1L5 2L3 2L3 1ZM6 1L9 1L9 2L6 2L6 2L6 1ZM10 1L13 1L13 2L10 2L10 2L10 1ZM16 0L16 2L14 2L14 0L16 0Z" shape-rendering="geometricPrecision" fill="#333333" style="fill-rule:evenodd" transform="matrix(1 0 0 1 0 -0.000001907347282781302)"></path><path d="M0 6L0 8L8 8L8 0L6 0L6 6L0 6Z" shape-rendering="geometricPrecision" fill="#333333" fill-opacity="0.3" style="fill-rule:evenodd" transform="matrix(1 0 0 1 5 4.999998092651367)"></path><path d="M0 0L7 0L7 7L0 7L0 0Z" shape-rendering="geometricPrecision" fill="#333333" style="fill-rule:evenodd" transform="matrix(1 0 0 1 3 2.999998092651367)"></path></g></svg>