<?xml version="1.0" standalone="no"?><!DOCTYPE svg PUBLIC "-//W3C//DTD SVG 1.1//EN" "http://www.w3.org/Graphics/SVG/1.1/DTD/svg11.dtd"><svg t="1694513290052" class="icon" viewBox="0 0 1024 1024" version="1.1" xmlns="http://www.w3.org/2000/svg" p-id="5395" xmlns:xlink="http://www.w3.org/1999/xlink" width="200" height="200"><path d="M308.1 894.3h-4.4c-45.8 0-90.3-18.7-122.1-51.3l-0.1-0.1c-33.8-32.3-53.5-77.3-53.9-123.5 1-47 20.2-90.9 53.9-123.6L296 481.5c6.3-6 14.4-9.2 23.2-9.4 8.3 0 16.5 3.4 22.4 9.4l0.1 0.1c6.1 5.6 9.6 13.7 9.6 22.4s-3.5 17.1-9.7 23L227.8 643.6c-21 20.8-32.6 48.4-32.6 77.8 0 61 49.6 110.7 110.7 110.7h0.6c29.4 0 57.1-11.4 77.9-32.2l114.3-114.7c5.9-5.9 14.1-9.4 22.5-9.4h0.7c17.1 0 31.4 14.1 31.7 31.3v0.9c0 8.3-3.4 16.5-9.4 22.5l-114 114.8c-32 32.3-76.9 48.7-122.1 49z m399.8-342.1c-13.1 0-24.9-7.7-29.9-19.6-4.9-12-2.2-25.9 6.9-35.4l114.7-114.3c43-43.6 42.4-114.1-1.2-157.2-10.3-10.1-22.1-18-34.9-23.3-13.5-5.3-28.1-8-42.5-8-29.4 0-57.1 11.4-77.9 32.2L528.7 340.9c-6 6-14 9.4-22.4 9.4h-1.4c-8.2 0-16.1-3.4-21.7-9.3l-0.1-0.1c-5.9-5.9-9.4-14.1-9.4-22.5-0.2-8.6 3.2-17 9.4-23.1L597.4 181c33-33.1 77-51.4 123.9-51.4 46.7 0 90.6 18.2 123.6 51.2 33.1 33.1 51.3 77 51.4 123.7 0.1 46.7-18.1 90.7-51.2 123.7L730.4 543c-6 5.8-14.2 9.2-22.5 9.2z" fill="" p-id="5396"></path><path d="M429 628.2c-8.3 0-16.5-3.4-22.5-9.4-6.1-6.1-9.5-14.5-9.4-23v-0.2c-0.2-8.5 3.2-16.6 9.3-22.3l165.8-165.8 0.1-0.1c5.6-6.1 13.7-9.6 22.4-9.6s17.1 3.5 23 9.7c6 6 9.3 14 9.3 22.5s-3.3 16.5-9.3 22.5L452.1 618.2c-6.6 6.3-15 10-23.1 10z" fill="" p-id="5397"></path></svg>