<svg width="16" height="17" viewBox="0 0 16 17" shape-rendering="geometricPrecision" xmlns="http://www.w3.org/2000/svg" xmlns:xlink="http://www.w3.org/1999/xlink"><g><path d="M0 0L16 0L16 16L0 16L0 0Z" shape-rendering="geometricPrecision" fill="#000000" fill-opacity="0" style="fill-rule:evenodd" transform="matrix(1 0 0 1 0 0.650421142578125)"></path><path d="M0 12L3.64644 12C6.215 12 8 10.8368 8 8.47835C8 6.84344 7.02914 5.89207 5.6646 5.61626L5.6646 5.53231C6.7463 5.17255 7.34257 4.12525 7.34257 2.93005C7.34257 0.815456 5.71429 0 3.39799 0L0 0L0 12ZM1.44099 5.08861L1.44099 1.1952L3.20688 1.1952C5.00717 1.1952 5.91687 1.71885 5.91687 3.12592C5.91687 4.3531 5.11801 5.08861 3.14572 5.08861L1.44099 5.08861ZM1.44099 10.7888L1.44099 6.26782L3.44386 6.26782C5.46202 6.26782 6.5743 6.93937 6.5743 8.43038C6.5743 10.0533 5.41615 10.7888 3.44386 10.7888L1.44099 10.7888Z" shape-rendering="geometricPrecision" fill="#000000" style="fill-rule:evenodd" transform="matrix(1 0 0 1 4 2.650421142578125)"></path></g></svg>