<svg width="16" height="17" viewBox="0 0 16 17" shape-rendering="geometricPrecision" xmlns="http://www.w3.org/2000/svg" xmlns:xlink="http://www.w3.org/1999/xlink"><g><path d="M0 0L16 0L16 16L0 16L0 0Z" shape-rendering="geometricPrecision" fill="#000000" fill-opacity="0" style="fill-rule:evenodd" transform="matrix(1 0 0 1 -0.0000017583370208740234 0.13570276661187108)"></path><path d="M6 0C5.58579 0 5.25 0.335786 5.25 0.75L5.25 5.25L0.75 5.25C0.335786 5.25 0 5.58579 0 6C0 6.41421 0.335786 6.75 0.75 6.75L5.25 6.75L5.25 11.25C5.25 11.6642 5.58579 12 6 12C6.41421 12 6.75 11.6642 6.75 11.25L6.75 6.75L11.25 6.75C11.6642 6.75 12 6.41421 12 6C12 5.58579 11.6642 5.25 11.25 5.25L6.75 5.25L6.75 0.75C6.75 0.335786 6.41421 0 6 0Z" shape-rendering="geometricPrecision" fill="#000000" style="fill-rule:evenodd" transform="matrix(0.7071067811865476 0.7071067811865475 -0.7071067811865475 0.7071067811865476 7.999998569488525 -0.3495785778243885)"></path></g></svg>