<svg width="16" height="17" viewBox="0 0 16 17" shape-rendering="geometricPrecision" xmlns="http://www.w3.org/2000/svg" xmlns:xlink="http://www.w3.org/1999/xlink"><path d="M5.75 0C5.33579 0 5 0.335786 5 0.75C5 1.16421 5.33579 1.5 5.75 1.5L10.25 1.5C10.6642 1.5 11 1.16421 11 0.75C11 0.335786 10.6642 0 10.25 0L5.75 0ZM0.75 3.5C0.335786 3.5 0 3.16421 0 2.75C0 2.33579 0.335786 2 0.75 2L15.25 2C15.6642 2 16 2.33579 16 2.75C16 3.16421 15.6642 3.5 15.25 3.5L14.5 3.5L14.5 15.25C14.5 15.6642 14.1642 16 13.75 16L2.25 16C1.83579 16 1.5 15.6642 1.5 15.25L1.5 3.5L0.75 3.5ZM13 14.5L13 3.5L3 3.5L3 14.5L13 14.5ZM4.5 5.75C4.5 5.33579 4.83579 5 5.25 5C5.66421 5 6 5.33579 6 5.75L6 12.25C6 12.6642 5.66421 13 5.25 13C4.83579 13 4.5 12.6642 4.5 12.25L4.5 5.75ZM8 5C7.58579 5 7.25 5.33579 7.25 5.75L7.25 12.25C7.25 12.6642 7.58579 13 8 13C8.41421 13 8.75 12.6642 8.75 12.25L8.75 5.75C8.75 5.33579 8.41421 5 8 5ZM10.75 5C10.3358 5 10 5.33579 10 5.75L10 12.25C10 12.6642 10.3358 13 10.75 13C11.1642 13 11.5 12.6642 11.5 12.25L11.5 5.75C11.5 5.33579 11.1642 5 10.75 5Z" shape-rendering="geometricPrecision" fill="#000000" style="fill-rule:evenodd" transform="matrix(1 0 0 1 0 0.650421142578125)"></path></svg>