<svg width="16" height="17" viewBox="0 0 16 17" shape-rendering="geometricPrecision" xmlns="http://www.w3.org/2000/svg" xmlns:xlink="http://www.w3.org/1999/xlink"><g><path d="M0 0L16 0L16 16L0 16L0 0Z" shape-rendering="geometricPrecision" fill="#000000" fill-opacity="0" style="fill-rule:evenodd" transform="matrix(1 0 0 1 0 0.650421142578125)"></path><path d="M9 8.71148C9 10.5449 7.47969 12 5.05416 12C3.40619 12 1.99807 11.3361 1 10.294L1.87041 9.28273C2.69439 10.1512 3.86654 10.7186 5.06963 10.7186C6.60928 10.7186 7.51064 9.96205 7.51064 8.83885C7.51064 7.63847 6.67118 7.25635 5.56093 6.76616L4.95078 6.5L0 6.5L0 5.5L2.89073 5.5C2.15428 4.99429 1.53772 4.23986 1.53772 3.06851C1.53772 1.28144 3.08897 0 5.19729 0C6.57447 0 7.79691 0.586684 8.60542 1.42425L7.84333 2.35831C7.13153 1.69444 6.2766 1.28144 5.19729 1.28144C3.88201 1.28144 3.02708 1.92988 3.02708 2.95658C3.02708 4.09521 4.05609 4.52364 4.96132 4.9019L6.34918 5.5L10 5.5L10 6.5L8.07627 6.5C8.64252 7.01566 9 7.70438 9 8.71148Z" shape-rendering="geometricPrecision" fill="#000000" style="fill-rule:evenodd" transform="matrix(1 0 0 1 3 2.650421142578125)"></path></g></svg>