<?xml version="1.0" encoding="UTF-8"?>
<svg width="16px" height="16px" viewBox="0 0 16 16" version="1.1" xmlns="http://www.w3.org/2000/svg" xmlns:xlink="http://www.w3.org/1999/xlink">
    <title>等比拉伸</title>
    <g id="页面-1" stroke="none" stroke-width="1" fill="none" fill-rule="evenodd">
        <g id="画" transform="translate(-629.000000, -244.000000)">
            <g id="等比拉伸" transform="translate(637.000000, 252.000000) rotate(-360.000000) translate(-637.000000, -252.000000) translate(629.000000, 244.000000)">
                <rect id="矩形备份-193" x="0" y="-9.09494702e-13" width="16" height="16"></rect>
                <rect id="矩形备份-195" x="1" y="1" width="14" height="14"></rect>
                <path d="M3.91421356,1.70710678 C4.19035594,1.70710678 4.41421356,1.93096441 4.41421356,2.20710678 C4.41421356,2.48324916 4.19035594,2.70710678 3.91421356,2.70710678 L2.41421356,2.70710678 L2.41421356,4.20710678 C2.41421356,4.48324916 2.19035594,4.70710678 1.91421356,4.70710678 C1.63807119,4.70710678 1.41421356,4.48324916 1.41421356,4.20710678 L1.41421356,2.20710678 C1.41421356,1.93096441 1.63807119,1.70710678 1.91421356,1.70710678 L3.91421356,1.70710678 Z" id="形状结合" fill="#666666" transform="translate(2.914214, 3.207107) rotate(-45.000000) translate(-2.914214, -3.207107) "></path>
                <path d="M14.0978547,4.67993353 C14.2931168,4.87519567 14.2931168,5.19177816 14.0978547,5.38704031 L13.0370877,6.44748692 L14.0978547,7.50836065 C14.2931168,7.7036228 14.2931168,8.02020529 14.0978547,8.21546743 C13.9025925,8.41072958 13.58601,8.41072958 13.3907479,8.21546743 L11.9765343,6.80125387 C11.7812722,6.60599173 11.7812722,6.28940924 11.9765343,6.09414709 L13.3907479,4.67993353 C13.58601,4.48467138 13.9025925,4.48467138 14.0978547,4.67993353 Z" id="形状结合备份-8" fill="#666666" transform="translate(13.037194, 6.447700) rotate(90.000000) translate(-13.037194, -6.447700) "></path>
                <path d="M9.67685425,1.70710678 C9.95299662,1.70710678 10.1768542,1.93096441 10.1768542,2.20710678 C10.1768542,2.48324916 9.95299662,2.70710678 9.67685425,2.70710678 L8.17585425,2.70710678 L8.17685425,4.20710678 C8.17685425,4.48324916 7.95299662,4.70710678 7.67685425,4.70710678 C7.40071187,4.70710678 7.17685425,4.48324916 7.17685425,4.20710678 L7.17685425,2.20710678 C7.17685425,1.93096441 7.40071187,1.70710678 7.67685425,1.70710678 L9.67685425,1.70710678 Z" id="形状结合备份-4" fill="#666666" transform="translate(8.676854, 3.207107) rotate(-225.000000) translate(-8.676854, -3.207107) "></path>
                <path d="M12.6836411,11.8515064 L14.0978547,13.26572 L14.0978547,13.26572 C14.2931168,13.4609821 14.2931168,13.7775646 14.0978547,13.9728267 L12.6836411,15.3870403 C12.4883789,15.5823025 12.1717965,15.5823025 11.9765343,15.3870403 C11.7812722,15.1917782 11.7812722,14.8751957 11.9765343,14.6799335 L13.0370877,13.6190598 L11.9765343,12.5586132 C11.7812722,12.363351 11.7812722,12.0467685 11.9765343,11.8515064 C12.1717965,11.6562443 12.4883789,11.6562443 12.6836411,11.8515064 Z" id="形状结合备份-9" fill="#666666" transform="translate(13.037194, 13.619273) rotate(90.000000) translate(-13.037194, -13.619273) "></path>
                <rect id="矩形" fill="#666666" x="1.79553391" y="2.70710678" width="8" height="1" rx="0.5"></rect>
                <path d="M9.49953884,9.53303645 L16.5353461,9.50046116 C16.8102099,9.49918856 17.0340628,9.7209781 17.0353354,9.99584197 C17.0353389,9.99661005 17.0353407,9.99737813 17.0353407,9.99814622 L17.0353407,10.0004558 C17.0353407,10.2756946 16.8128915,10.4991761 16.5376556,10.5004505 L9.50184842,10.5330258 C9.22698456,10.5342984 9.00313172,10.3125088 9.00185912,10.0376449 C9.00185556,10.0368769 9.00185378,10.0361088 9.00185378,10.0353407 L9.00185378,10.0330311 C9.00185378,9.75779233 9.22430303,9.53431078 9.49953884,9.53303645 Z" id="矩形备份-5" fill="#666666" transform="translate(13.018597, 10.016743) rotate(-270.000000) translate(-13.018597, -10.016743) "></path>
                <rect id="矩形备份-14" stroke="#666666" fill="#FFFFFF" x="1.5" y="6.5" width="8" height="8" rx="1"></rect>
            </g>
        </g>
    </g>
</svg>