<svg width="16" height="16" viewBox="0 0 16 16" shape-rendering="geometricPrecision" xmlns="http://www.w3.org/2000/svg" xmlns:xlink="http://www.w3.org/1999/xlink"><g><path d="M0 8C0 12.4183 3.58172 16 8 16C12.4183 16 16 12.4183 16 8C16 3.58172 12.4183 0 8 0C7.84743 0 7.69587 0.00427067 7.54541 0.012699L7.54541 1.51565C7.69559 1.50527 7.84718 1.5 8 1.5C11.5899 1.5 14.5 4.41014 14.5 8C14.5 11.5898 11.5899 14.5 8 14.5C4.41015 14.5 1.5 11.5898 1.5 8L0 8Z" shape-rendering="geometricPrecision" fill="#333333" style="fill-rule:evenodd" transform="matrix(1 0 0 1 -0.000030517578125 0.00000112876296043396)"></path><path d="M8 16C12.4183 16 16 12.4183 16 8C16 3.58172 12.4183 0 8 0C3.58172 0 0 3.58172 0 8C0 12.4183 3.58172 16 8 16Z" shape-rendering="geometricPrecision" fill="#333333" fill-opacity="0.1" style="fill-rule:evenodd" transform="matrix(1 0 0 1 -0.000030516500032717886 -0.0000019073486328125)"></path></g></svg>