<svg width="16" height="16" viewBox="0 0 16 16" shape-rendering="geometricPrecision" xmlns="http://www.w3.org/2000/svg" xmlns:xlink="http://www.w3.org/1999/xlink"><g><path d="M3.76934 5.85143C4.60601 5.65949 5.22971 4.9593 5.32401 4.10608C5.35569 3.62971 4.89457 2.85648 4.10609 3.1287C3.31761 3.40091 2.67286 4.0879 2.55142 4.87462L0 7.70764L1.31648 1.85622L5.08582 4.83777e-16L8.50728 2.82363L7.08637 6.66338L1.12993 8.71495L3.76934 5.85143Z" shape-rendering="geometricPrecision" fill="#FFFFFF" fill-opacity="0.2" style="fill-rule:evenodd" transform="matrix(1 0 0 1 2.666065216064453 4.690225124359131)"></path><path d="M14.9225 4.80716L9.15201 0L6.01451 3.40736L2.24517 5.26358L0 15.5302L10.3635 12.0542L11.785 8.2145L14.9225 4.80716ZM11.6512 6.11953L8.20102 3.21259L9.28577 2.09499L12.7354 5.00193L11.6512 6.11953ZM5.85787 10.3488C6.69454 10.1569 7.31824 9.45669 7.41254 8.60347C7.44422 8.1271 6.9831 7.35387 6.19461 7.62608C5.40613 7.8983 4.76139 8.58529 4.63995 9.37201L2.08853 12.205L3.40501 6.35361L7.17435 4.49739L10.5958 7.32102L9.1749 11.1608L3.21846 13.2123L5.85787 10.3488Z" shape-rendering="geometricPrecision" fill="#FFFFFF" style="fill-rule:evenodd" transform="matrix(1 0 0 1 0.5775372982025146 0.19283780455589294)"></path></g></svg>