<svg width="16" height="16" viewBox="0 0 16 16" shape-rendering="geometricPrecision" xmlns="http://www.w3.org/2000/svg" xmlns:xlink="http://www.w3.org/1999/xlink"><g><g><path d="M0 0L2 0L2 2L0 2L0 0Z" shape-rendering="geometricPrecision" fill="#333333" style="fill-rule:evenodd" transform="matrix(1 0 0 1 6 5.999998092651367)"></path><path d="M0 0L6 0L6 6L0 6L0 0Z" shape-rendering="geometricPrecision" fill="#FFFFFF" fill-opacity="0.5" style="fill-rule:evenodd" transform="matrix(1 0 0 1 8 7.999998092651367)"></path> <path d="M-1 -1L7 -1L7 7L-1 7L-1 -1ZM6 0L0 0L0 6L6 6L6 0Z" stroke-dasharray="" stroke-linecap="butt" stroke-linejoin="miter" stroke-width="0" shape-rendering="geometricPrecision" fill-opacity="0.3" fill="#FFFFFF" transform="matrix(1 0 0 1 8 7.999998092651367)"></path> <path d="M0 0L2 0L2 2L0 2L0 0Z" shape-rendering="geometricPrecision" fill="#FFFFFF" style="fill-rule:evenodd" transform="matrix(1 0 0 1 6 13.999998092651367)"></path><path d="M0 0L2 0L2 2L0 2L0 0Z" shape-rendering="geometricPrecision" fill="#FFFFFF" style="fill-rule:evenodd" transform="matrix(1 0 0 1 14 5.999998092651367)"></path><path d="M0 0L2 0L2 2L0 2L0 0Z" shape-rendering="geometricPrecision" fill="#FFFFFF" style="fill-rule:evenodd" transform="matrix(1 0 0 1 14 13.999998092651367)"></path></g><g><path d="M0 0L2 0L2 2L0 2L0 0Z" shape-rendering="geometricPrecision" fill="#FFFFFF" style="fill-rule:evenodd" transform="matrix(1 0 0 1 0 -0.0000019073486328125)"></path><path d="M0 0L2 0L2 2L0 2L0 0Z" shape-rendering="geometricPrecision" fill="#FFFFFF" style="fill-rule:evenodd" transform="matrix(1 0 0 1 0 7.999998092651367)"></path><path d="M0 0L2 0L2 2L0 2L0 0Z" shape-rendering="geometricPrecision" fill="#FFFFFF" style="fill-rule:evenodd" transform="matrix(1 0 0 1 8 -0.0000019073486328125)"></path><path d="M0 0L2 0L2 2L0 2L0 0Z" shape-rendering="geometricPrecision" fill="#FFFFFF" style="fill-rule:evenodd" transform="matrix(1 0 0 1 8 7.999998092651367)"></path><path d="M0 0L6 0L6 6L0 6L0 0Z" shape-rendering="geometricPrecision" fill="#FFFFFF" style="fill-rule:evenodd" transform="matrix(1 0 0 1 2 1.9999980926513672)"></path> <path d="M-1 -1L7 -1L7 7L-1 7L-1 -1ZM6 0L0 0L0 6L6 6L6 0Z" stroke-dasharray="" stroke-linecap="butt" stroke-linejoin="miter" stroke-width="0" shape-rendering="geometricPrecision" fill-opacity="0.3" fill="#FFFFFF" transform="matrix(1 0 0 1 2 1.9999980926513672)"></path> </g></g></svg>