<svg width="17" height="17" viewBox="0 0 17 17" shape-rendering="geometricPrecision" xmlns="http://www.w3.org/2000/svg" xmlns:xlink="http://www.w3.org/1999/xlink"><g><path d="M0 0L10 0L10 10L0 10L0 0Z" shape-rendering="geometricPrecision" fill="#333333" fill-opacity="0.1" style="fill-rule:evenodd" transform="matrix(1 0 0 1 3.40570068359375 3.4999990463256836)"></path><path d="M3 13L3 16L0 16L0 13L3 13ZM9.09949 9.03685L14.7993 11.1469L12.7138 11.9501L15.0767 14.2972C15.1032 14.3242 15.1063 14.3675 15.0876 14.4053L15.0612 14.4424L14.5 15C14.4709 15.031 14.4271 15.0438 14.3857 15.0332L14.3547 15.0139L11.8922 12.5687L10.8204 14.8347L9.09949 9.03685ZM6 14L6 15L4 15L4 14L6 14ZM9 14L9 15L7 15L7 14L9 14ZM2 10L2 12L1 12L1 10L2 10ZM2 7L2 9L1 9L1 7L2 7ZM15 7L15 9L14 9L14 7L15 7ZM2 4L2 6L1 6L1 4L2 4ZM15 4L15 6L14 6L14 4L15 4ZM3 0L3 3L0 3L0 0L3 0ZM16 0L16 3L13 3L13 0L16 0ZM6 1L6 2L4 2L4 1L6 1ZM9 1L9 2L7 2L7 1L9 1ZM12 1L12 2L10 2L10 1L12 1Z" shape-rendering="geometricPrecision" fill="#333333" style="fill-rule:evenodd" transform="matrix(1 0 0 1 0.40570068359375 0.4999990463256836)"></path></g></svg>