<svg width="16" height="16" viewBox="0 0 16 16" shape-rendering="geometricPrecision" xmlns="http://www.w3.org/2000/svg" xmlns:xlink="http://www.w3.org/1999/xlink"><g> <path d="M0 0.5L10 0.5" stroke-dasharray="" stroke-linecap="butt" stroke-linejoin="miter" stroke="#FFFFFF" stroke-width="1" shape-rendering="geometricPrecision" fill-opacity="0" transform="matrix(1 0 0 1 3 7.499998092651367)"></path> <path d="M2 4C3.10457 4 4 3.10457 4 2C4 0.895431 3.10457 0 2 0C0.895431 0 0 0.895431 0 2C0 3.10457 0.895431 4 2 4Z" shape-rendering="geometricPrecision" fill="#FFFFFF" fill-opacity="0.2" style="fill-rule:evenodd" transform="matrix(1 0 0 1 0 5.999998092651367)"></path> <defs><path id="6lzU-33m-6lzU-33o" d="M2 4C3.10457 4 4 3.10457 4 2C4 0.895431 3.10457 0 2 0C0.895431 0 0 0.895431 0 2C0 3.10457 0.895431 4 2 4Z" stroke-dasharray="" stroke-linecap="butt" stroke-linejoin="miter"></path><clipPath id="stroke-clippath-6lzU-33m-6lzU-33o"><use xlink:href="#6lzU-33m-6lzU-33o"></use></clipPath></defs><use xlink:href="#6lzU-33m-6lzU-33o" stroke-width="2" stroke="#FFFFFF" fill="none" fill-opacity="0" clip-path="url(#stroke-clippath-6lzU-33m-6lzU-33o)" transform="matrix(1 0 0 1 0 5.999998092651367)"></use> <path d="M2 4C3.10457 4 4 3.10457 4 2C4 0.895431 3.10457 0 2 0C0.895431 0 0 0.895431 0 2C0 3.10457 0.895431 4 2 4Z" shape-rendering="geometricPrecision" fill="#FFFFFF" fill-opacity="0.2" style="fill-rule:evenodd" transform="matrix(1 0 0 1 12 5.999998092651367)"></path> <defs><path id="odK6-7r-odK6-7t" d="M2 4C3.10457 4 4 3.10457 4 2C4 0.895431 3.10457 0 2 0C0.895431 0 0 0.895431 0 2C0 3.10457 0.895431 4 2 4Z" stroke-dasharray="" stroke-linecap="butt" stroke-linejoin="miter"></path><clipPath id="stroke-clippath-odK6-7r-odK6-7t"><use xlink:href="#odK6-7r-odK6-7t"></use></clipPath></defs><use xlink:href="#odK6-7r-odK6-7t" stroke-width="2" stroke="#FFFFFF" fill="none" fill-opacity="0" clip-path="url(#stroke-clippath-odK6-7r-odK6-7t)" transform="matrix(1 0 0 1 12 5.999998092651367)"></use> </g></svg>