<svg width="16" height="16" viewBox="0 0 16 16" shape-rendering="geometricPrecision" xmlns="http://www.w3.org/2000/svg" xmlns:xlink="http://www.w3.org/1999/xlink"><g> <path d="M0 8L2.25 8C3.49264 8 4.5 6.99264 4.5 5.75L4.5 2.75C4.5 1.23122 5.73122 0 7.25 0L10 0" stroke-dasharray="" stroke-linecap="butt" stroke-linejoin="miter" stroke="#000000" stroke-width="1" shape-rendering="geometricPrecision" fill-opacity="0" transform="matrix(1 0 0 1 3 3.999998092651367)"></path> <path d="M2 4C3.10457 4 4 3.10457 4 2C4 0.895431 3.10457 0 2 0C0.895431 0 0 0.895431 0 2C0 3.10457 0.895431 4 2 4Z" shape-rendering="geometricPrecision" fill="#333333" fill-opacity="0.1" style="fill-rule:evenodd" transform="matrix(1 0 0 1 12 1.9999980926513672)"></path> <defs><path id="odK6-3q-odK6-3s" d="M2 4C3.10457 4 4 3.10457 4 2C4 0.895431 3.10457 0 2 0C0.895431 0 0 0.895431 0 2C0 3.10457 0.895431 4 2 4Z" stroke-dasharray="" stroke-linecap="butt" stroke-linejoin="miter"></path><clipPath id="stroke-clippath-odK6-3q-odK6-3s"><use xlink:href="#odK6-3q-odK6-3s"></use></clipPath></defs><use xlink:href="#odK6-3q-odK6-3s" stroke-width="2" stroke="#000000" fill="none" fill-opacity="0" clip-path="url(#stroke-clippath-odK6-3q-odK6-3s)" transform="matrix(1 0 0 1 12 1.9999980926513672)"></use> <path d="M2 4C3.10457 4 4 3.10457 4 2C4 0.895431 3.10457 0 2 0C0.895431 0 0 0.895431 0 2C0 3.10457 0.895431 4 2 4Z" shape-rendering="geometricPrecision" fill="#333333" fill-opacity="0.1" style="fill-rule:evenodd" transform="matrix(1 0 0 1 0 9.999998092651367)"></path> <defs><path id="6lzU-34p-6lzU-34r" d="M2 4C3.10457 4 4 3.10457 4 2C4 0.895431 3.10457 0 2 0C0.895431 0 0 0.895431 0 2C0 3.10457 0.895431 4 2 4Z" stroke-dasharray="" stroke-linecap="butt" stroke-linejoin="miter"></path><clipPath id="stroke-clippath-6lzU-34p-6lzU-34r"><use xlink:href="#6lzU-34p-6lzU-34r"></use></clipPath></defs><use xlink:href="#6lzU-34p-6lzU-34r" stroke-width="2" stroke="#000000" fill="none" fill-opacity="0" clip-path="url(#stroke-clippath-6lzU-34p-6lzU-34r)" transform="matrix(1 0 0 1 0 9.999998092651367)"></use> </g></svg>