<svg width="16" height="16" viewBox="0 0 16 16" shape-rendering="geometricPrecision" xmlns="http://www.w3.org/2000/svg" xmlns:xlink="http://www.w3.org/1999/xlink"><g> <path d="M0 8L4.5 8L4.5 0L10 0" stroke-dasharray="" stroke-linecap="butt" stroke-linejoin="miter" stroke="#FFFFFF" stroke-width="1" shape-rendering="geometricPrecision" fill-opacity="0" transform="matrix(1 0 0 1 3 3.9999942779541016)"></path> <path d="M2 4C3.10457 4 4 3.10457 4 2C4 0.895431 3.10457 0 2 0C0.895431 0 0 0.895431 0 2C0 3.10457 0.895431 4 2 4Z" shape-rendering="geometricPrecision" fill="#FFFFFF" fill-opacity="0.2" style="fill-rule:evenodd" transform="matrix(1 0 0 1 0 9.999994277954102)"></path> <defs><path id="6lzU-34c-6lzU-34e" d="M2 4C3.10457 4 4 3.10457 4 2C4 0.895431 3.10457 0 2 0C0.895431 0 0 0.895431 0 2C0 3.10457 0.895431 4 2 4Z" stroke-dasharray="" stroke-linecap="butt" stroke-linejoin="miter"></path><clipPath id="stroke-clippath-6lzU-34c-6lzU-34e"><use xlink:href="#6lzU-34c-6lzU-34e"></use></clipPath></defs><use xlink:href="#6lzU-34c-6lzU-34e" stroke-width="2" stroke="#FFFFFF" fill="none" fill-opacity="0" clip-path="url(#stroke-clippath-6lzU-34c-6lzU-34e)" transform="matrix(1 0 0 1 0 9.999994277954102)"></use> <path d="M2 4C3.10457 4 4 3.10457 4 2C4 0.895431 3.10457 0 2 0C0.895431 0 0 0.895431 0 2C0 3.10457 0.895431 4 2 4Z" shape-rendering="geometricPrecision" fill="#FFFFFF" fill-opacity="0.2" style="fill-rule:evenodd" transform="matrix(1 0 0 1 12 1.9999942779541016)"></path> <defs><path id="odK6-7w-odK6-7y" d="M2 4C3.10457 4 4 3.10457 4 2C4 0.895431 3.10457 0 2 0C0.895431 0 0 0.895431 0 2C0 3.10457 0.895431 4 2 4Z" stroke-dasharray="" stroke-linecap="butt" stroke-linejoin="miter"></path><clipPath id="stroke-clippath-odK6-7w-odK6-7y"><use xlink:href="#odK6-7w-odK6-7y"></use></clipPath></defs><use xlink:href="#odK6-7w-odK6-7y" stroke-width="2" stroke="#FFFFFF" fill="none" fill-opacity="0" clip-path="url(#stroke-clippath-odK6-7w-odK6-7y)" transform="matrix(1 0 0 1 12 1.9999942779541016)"></use> </g></svg>