<svg width="17" height="16" viewBox="0 0 17 16" shape-rendering="geometricPrecision" xmlns="http://www.w3.org/2000/svg" xmlns:xlink="http://www.w3.org/1999/xlink"><g><path d="M8.16124 1.35352L8.16124 1.35352C8.60851 1.35332 8.97126 1.71574 8.97146 2.16301C8.97146 2.16307 8.97146 2.16314 8.97146 2.1632L8.98744 7.27534C8.98519 7.30787 8.99948 7.32761 9.01433 7.32761C9.02636 7.32761 9.03897 7.31426 9.04309 7.28399L9.76382 3.29357C9.83509 2.89879 10.181 2.6029 10.569 2.6029L10.569 2.6029C10.6147 2.60289 10.6603 2.60698 10.7053 2.61512C11.1457 2.69464 11.4384 3.14148 11.3587 3.58119L10.716 8.25102C10.716 8.29989 10.7252 8.33654 10.7412 8.33654C10.7523 8.33654 10.7666 8.31868 10.7827 8.27508L11.7403 5.71485C11.8601 5.37778 12.1802 5.15333 12.5194 5.15333L12.5194 5.15333C12.6065 5.1533 12.693 5.16824 12.775 5.19751C13.1967 5.3479 13.4172 5.83555 13.2674 6.25683L11.5886 11.7414C11.58 11.7717 11.5698 11.8017 11.5612 11.8316L11.5576 11.8429L11.5576 11.8454L11.5576 11.8454C11.0786 13.3158 9.70772 14.3109 8.16124 14.3108C7.14611 14.3108 6.09072 13.9527 5.28764 13.3368C4.42026 12.8148 1.64068 9.8271 1.64068 9.8271C1.21882 9.40562 1.2818 8.75991 1.70364 8.33824C1.92396 8.11791 2.19862 8.00213 2.47083 8.00213C2.71973 8.00213 2.96673 8.09857 3.16807 8.29989L4.37384 9.50602C4.53813 9.67014 4.72011 9.74853 4.88797 9.74853L4.88797 9.74853C5.04251 9.74861 5.18891 9.67925 5.28672 9.5596C5.43297 9.38702 5.37524 8.85465 5.33427 8.51701L4.7295 3.54678C4.67555 3.10258 4.99268 2.67358 5.43616 2.61963L5.43616 2.61963C5.46691 2.61589 5.49786 2.61401 5.52884 2.61399C5.93526 2.61399 6.28793 2.93826 6.33831 3.35109L7.0053 7.25504C7.02258 7.30355 7.05003 7.33212 7.07409 7.33212C7.09815 7.33212 7.11903 7.30355 7.12336 7.23812L7.35024 2.1632L7.35024 2.16328C7.35039 1.71591 7.71319 1.35336 8.16056 1.35352C8.16076 1.35352 8.16096 1.35352 8.16116 1.35352M8.16116 9.15691e-07L8.16116 9.15714e-07C7.29206 0.000315394 6.50739 0.520342 6.16847 1.32063C6.16377 1.33152 6.15927 1.34263 6.15476 1.35371L6.15476 1.35371C5.57795 1.1762 4.95285 1.25241 4.43559 1.56332L4.43559 1.56332C4.19514 1.7075 3.98492 1.89692 3.81655 2.12109L3.81655 2.12109C3.65018 2.34112 3.52666 2.59046 3.45242 2.85613L3.45242 2.85613C3.37405 3.13336 3.35156 3.4234 3.38625 3.70939L3.79417 7.06612L3.79417 7.06612C3.40631 6.79446 2.94427 6.64869 2.47073 6.64859C1.83158 6.64859 1.21892 6.90858 0.746516 7.38063C0.303231 7.82372 0.0400521 8.39971 0.00434027 9.00298L0.00434029 9.00298C-0.0357846 9.65689 0.203735 10.2971 0.663233 10.764C0.768879 10.8768 1.42025 11.5739 2.17579 12.3379C3.60018 13.7782 4.18727 14.2409 4.51906 14.4533C5.5498 15.2241 6.87287 15.6643 8.16041 15.6643L8.16041 15.6643C10.2851 15.6644 12.1704 14.3019 12.8371 12.2845C12.8418 12.271 12.8463 12.2574 12.8504 12.2437L12.8527 12.2366L12.8527 12.2366C12.8642 12.2008 12.8752 12.1649 12.8856 12.1289L14.5549 6.6751L14.5549 6.6751C14.6436 6.41183 14.6808 6.13392 14.6643 5.85659L14.6643 5.85659C14.632 5.29661 14.3878 4.76991 13.9812 4.38353L13.9812 4.38353C13.6299 4.05042 13.1755 3.84705 12.6931 3.80698L12.6959 3.78817L12.6959 3.78817C12.741 3.51451 12.7332 3.23475 12.673 2.96403L12.673 2.96403C12.6138 2.69448 12.5045 2.43845 12.3507 2.20925L12.3507 2.20925C12.1953 1.97615 11.9962 1.77533 11.7644 1.61784L11.7644 1.61784C11.2899 1.29395 10.7043 1.17639 10.1415 1.29204L10.1415 1.29204C9.79629 0.506559 9.01923 -0.000440571 8.16123 5.74932e-07L8.16116 9.15691e-07Z" shape-rendering="geometricPrecision" fill="#FFFFFF" style="fill-rule:evenodd" transform="matrix(1 0 0 1 0.6459790915250778 0.1670854240655899)"></path><path d="M6.80722 8.30709e-08L6.80722 8.30602e-08C7.25449 -0.000200308 7.61724 0.362223 7.61744 0.809494C7.61744 0.809558 7.61744 0.809622 7.61744 0.809685L7.63343 5.92183C7.63117 5.95435 7.64546 5.9741 7.66032 5.9741C7.67235 5.9741 7.68495 5.96075 7.68908 5.93048L8.40981 1.94005C8.48108 1.54527 8.82697 1.24938 9.21498 1.24938L9.21498 1.24938C9.26068 1.24938 9.30629 1.25347 9.35126 1.2616C9.79172 1.34112 10.0844 1.78796 10.0047 2.22767L9.36198 6.89751C9.36198 6.94637 9.3712 6.98302 9.38719 6.98302C9.39826 6.98302 9.41255 6.96517 9.42872 6.92157L10.3863 4.36133C10.5061 4.02427 10.8262 3.79982 11.1654 3.79982L11.1654 3.79982C11.2525 3.79978 11.339 3.81472 11.421 3.84399C11.8427 3.99438 12.0632 4.48203 11.9133 4.90331L10.2346 10.3879C10.226 10.4181 10.2158 10.4482 10.2072 10.4781L10.2036 10.4894L10.2036 10.4918L10.2036 10.4918C9.7246 11.9623 8.35371 12.9574 6.80722 12.9573C5.79209 12.9573 4.7367 12.5992 3.93362 11.9833C3.06625 11.4613 0.286661 8.47358 0.286661 8.47358C-0.135197 8.0521 -0.0722147 7.40639 0.349624 6.98472C0.569949 6.7644 0.844606 6.64861 1.11682 6.64861C1.36571 6.64861 1.61272 6.74505 1.81406 6.94637L3.01982 8.1525C3.18411 8.31662 3.36609 8.39502 3.53396 8.39502L3.53396 8.39502C3.6885 8.39509 3.83489 8.32573 3.93271 8.20609C4.07895 8.0335 4.02122 7.50113 3.98026 7.16349L3.37549 2.19326C3.32154 1.74906 3.63867 1.32006 4.08214 1.26611L4.08214 1.26611C4.11289 1.26238 4.14384 1.2605 4.17482 1.26048C4.58125 1.26048 4.93392 1.58475 4.9843 1.99757L5.65129 5.90153C5.66857 5.95003 5.69601 5.9786 5.72007 5.9786C5.74414 5.9786 5.76501 5.95003 5.76935 5.88461L5.99622 0.809685L5.99622 0.809768C5.99638 0.36239 6.35917 -0.000154284 6.80655 4.03869e-07C6.80674 4.721e-07 6.80694 6.12599e-07 6.80714 8.25366e-07" shape-rendering="geometricPrecision" fill="#FFFFFF" fill-opacity="0.2" style="fill-rule:evenodd" transform="matrix(1 0 0 1 1.9999945163726807 1.5206027030944824)"></path></g></svg>