<svg width="17" height="17" viewBox="0 0 17 17" shape-rendering="geometricPrecision" xmlns="http://www.w3.org/2000/svg" xmlns:xlink="http://www.w3.org/1999/xlink"><g><path d="M0 0L16 0L16 16L0 16L0 0Z" shape-rendering="geometricPrecision" fill="#000000" fill-opacity="0" style="fill-rule:evenodd" transform="matrix(1 0 0 1 0.1390838623046875 0.13570213317871094)"></path><path d="M4.81586 0.21967C5.10876 -0.0732234 5.58363 -0.0732234 5.87652 0.21967L10.4727 4.81586C10.7656 5.10876 10.7656 5.58363 10.4727 5.87652C10.1798 6.16942 9.70495 6.16942 9.41206 5.87652L6.09619 2.56066L6.09619 10.4541C6.09619 10.8683 5.76041 11.2041 5.34619 11.2041C4.93198 11.2041 4.59619 10.8683 4.59619 10.4541L4.59619 2.56066L1.28033 5.87652C0.987437 6.16942 0.512563 6.16942 0.21967 5.87652C-0.0732231 5.58363 -0.0732231 5.10876 0.21967 4.81586L4.81586 0.21967Z" shape-rendering="geometricPrecision" fill="#000000" style="fill-rule:evenodd" transform="matrix(1 0 0 -1 2.792884111404419 13.737731695175171)"></path></g></svg>