<svg width="16" height="17" viewBox="0 0 16 17" shape-rendering="geometricPrecision" xmlns="http://www.w3.org/2000/svg" xmlns:xlink="http://www.w3.org/1999/xlink"><g><path d="M0 0L16 0L16 16L0 16L0 0Z" shape-rendering="geometricPrecision" fill="#000000" fill-opacity="0" style="fill-rule:evenodd" transform="matrix(1 0 0 1 0 0.650421142578125)"></path><path d="M0 0L10 0L10 2L0 2L0 0Z" shape-rendering="geometricPrecision" fill="#000000" style="fill-rule:evenodd" transform="matrix(1 0 0 1 4 3.650421142578125)"></path><path d="M0 0L6 0L6 2L0 2L0 0Z" shape-rendering="geometricPrecision" fill="#000000" style="fill-rule:evenodd" transform="matrix(1 0 0 1 8 7.650421142578125)"></path><path d="M0 0L10 0L10 2L0 2L0 0Z" shape-rendering="geometricPrecision" fill="#000000" style="fill-rule:evenodd" transform="matrix(1 0 0 1 4 11.650421142578125)"></path></g></svg>