<svg width="16" height="16" viewBox="0 0 16 16" shape-rendering="geometricPrecision" xmlns="http://www.w3.org/2000/svg" xmlns:xlink="http://www.w3.org/1999/xlink"><g><path d="M8 16C12.4183 16 16 12.4183 16 8C16 3.58172 12.4183 0 8 0C3.58172 0 0 3.58172 0 8C0 12.4183 3.58172 16 8 16Z" shape-rendering="geometricPrecision" fill="#FFFFFF" fill-opacity="0.2" style="fill-rule:evenodd" transform="matrix(1 0 0 1 0 -0.0000019073486328125)"></path> <defs><path id="6lzU-24t-6lzU-24v" d="M8 16C12.4183 16 16 12.4183 16 8C16 3.58172 12.4183 0 8 0C3.58172 0 0 3.58172 0 8C0 12.4183 3.58172 16 8 16Z" stroke-dasharray="" stroke-linecap="butt" stroke-linejoin="miter"></path><clipPath id="stroke-clippath-6lzU-24t-6lzU-24v"><use xlink:href="#6lzU-24t-6lzU-24v"></use></clipPath></defs><use xlink:href="#6lzU-24t-6lzU-24v" stroke-width="3" stroke="#FFFFFF" fill="none" fill-opacity="0" clip-path="url(#stroke-clippath-6lzU-24t-6lzU-24v)" transform="matrix(1 0 0 1 0 -0.0000019073486328125)"></use> </g></svg>