<svg width="16" height="17" viewBox="0 0 16 17" shape-rendering="geometricPrecision" xmlns="http://www.w3.org/2000/svg" xmlns:xlink="http://www.w3.org/1999/xlink"><g><path d="M0 0L16 0L16 16L0 16L0 0Z" shape-rendering="geometricPrecision" fill="#000000" fill-opacity="0" style="fill-rule:evenodd" transform="matrix(1 0 0 1 0 0.650421142578125)"></path><path d="M8 5.77741C8 8.92962 6.26636 10 4.00186 10C1.71879 10 0 8.92962 0 5.77741L0 0L1.39954 0L1.39954 5.8036C1.39954 8.16367 2.53921 8.91326 4.00186 8.91326C5.47564 8.91326 6.64501 8.16367 6.64501 5.8036L6.64501 0L8 0L8 5.77741ZM8 11L0 11L0 12L8 12L8 11Z" shape-rendering="geometricPrecision" fill="#000000" style="fill-rule:evenodd" transform="matrix(1 0 0 1 4 2.650421142578125)"></path></g></svg>