<svg width="16" height="17" viewBox="0 0 16 17" shape-rendering="geometricPrecision" xmlns="http://www.w3.org/2000/svg" xmlns:xlink="http://www.w3.org/1999/xlink"><g><path d="M0 0L16 0L16 16L0 16L0 0Z" shape-rendering="geometricPrecision" fill="#000000" fill-opacity="0" style="fill-rule:evenodd" transform="matrix(1 0 0 1 0 0.650421142578125)"></path><path d="M5.87635 0.219574L10.4726 4.8142C10.7655 5.10695 10.7655 5.58172 10.4726 5.87447L10.4725 5.87457C10.1797 6.16734 9.70495 6.16734 9.41208 5.87457L6.09611 2.55981L6.09611 10.4501C6.09611 10.8643 5.76033 11.2001 5.34611 11.2001C4.9319 11.2001 4.59611 10.8643 4.59611 10.4501L4.59611 2.55981L1.28015 5.87457C0.987283 6.16734 0.512558 6.16734 0.219687 5.87457C-0.0732284 5.58176 -0.0732284 5.10691 0.219687 4.8141L4.81588 0.219574C5.10875 -0.0731915 5.58348 -0.0731914 5.87635 0.219574Z" shape-rendering="geometricPrecision" fill="#000000" style="fill-rule:evenodd" transform="matrix(1 0 0 1 2.6538798809051514 4.650424480438232)"></path><path d="M0 1C0 0.447715 0.447715 0 1 0L11 0C11.5523 0 12 0.447715 12 1L12 1C12 1.55228 11.5523 2 11 2L1 2C0.447715 2 0 1.55228 0 1L0 1Z" shape-rendering="geometricPrecision" fill="#000000" style="fill-rule:evenodd" transform="matrix(1 0 0 1 2 2.6504287719726562)"></path></g></svg>