<svg width="16" height="17" viewBox="0 0 16 17" shape-rendering="geometricPrecision" xmlns="http://www.w3.org/2000/svg" xmlns:xlink="http://www.w3.org/1999/xlink"><g><path d="M0 0L16 0L16 16L0 16L0 0Z" shape-rendering="geometricPrecision" fill="#000000" fill-opacity="0" style="fill-rule:evenodd" transform="matrix(1 0 0 1 0 0.650421142578125)"></path><path d="M0 1C0 0.447715 0.447715 0 1 0L11 0C11.5523 0 12 0.447715 12 1L12 1C12 1.55228 11.5523 2 11 2L1 2C0.447715 2 0 1.55228 0 1L0 1Z" shape-rendering="geometricPrecision" fill="#000000" style="fill-rule:evenodd" transform="matrix(1 0 0 1 2 7.650413513183594)"></path><path d="M3.22487 0C2.81065 0 2.47487 0.335786 2.47487 0.75L2.47487 4.12867L1.28033 2.93413C0.987437 2.64124 0.512563 2.64124 0.21967 2.93413C-0.0732233 3.22703 -0.0732233 3.7019 0.21967 3.99479L2.69454 6.46967C2.98744 6.76256 3.46231 6.76256 3.7552 6.46967L6.23008 3.99479C6.52297 3.7019 6.52297 3.22703 6.23008 2.93413C5.93718 2.64124 5.46231 2.64124 5.16942 2.93413L3.97487 4.12868L3.97487 0.75C3.97487 0.335786 3.63908 0 3.22487 0Z" shape-rendering="geometricPrecision" fill="#000000" style="fill-rule:evenodd" transform="matrix(1 0 0 1 4.775134086608887 0.650421142578125)"></path><path d="M3.22487 0C2.81065 0 2.47487 0.335786 2.47487 0.75L2.47487 4.12867L1.28033 2.93413C0.987437 2.64124 0.512563 2.64124 0.21967 2.93413C-0.0732233 3.22703 -0.0732233 3.7019 0.21967 3.99479L2.69454 6.46967C2.98744 6.76256 3.46231 6.76256 3.7552 6.46967L6.23008 3.99479C6.52297 3.7019 6.52297 3.22703 6.23008 2.93413C5.93718 2.64124 5.46231 2.64124 5.16942 2.93413L3.97487 4.12868L3.97487 0.75C3.97487 0.335786 3.63908 0 3.22487 0Z" shape-rendering="geometricPrecision" fill="#000000" style="fill-rule:evenodd" transform="matrix(1 -1.2246467991473532e-16 -1.2246467991473532e-16 -1 4.775123596191406 16.650425910949707)"></path></g></svg>