<svg width="16" height="17" viewBox="0 0 16 17" shape-rendering="geometricPrecision" xmlns="http://www.w3.org/2000/svg" xmlns:xlink="http://www.w3.org/1999/xlink"><g><path d="M0 0L16 0L16 16L0 16L0 0Z" shape-rendering="geometricPrecision" fill="#000000" fill-opacity="0" style="fill-rule:evenodd" transform="matrix(1 0 0 1 0 0.650421142578125)"></path><path d="M6.73605 0.500656C6.73605 -0.0409875 5.99507 -0.195984 5.77797 0.300247L0.0424744 13.41C-0.102051 13.7403 0.139977 14.1104 0.500553 14.1104L6.23605 14.1104C6.51219 14.1104 6.73605 13.8865 6.73605 13.6104L6.73605 0.500656ZM8.73605 0.500656C8.73605 -0.0409875 9.47703 -0.195984 9.69413 0.300247L15.4296 13.41C15.5742 13.7403 15.3321 14.1104 14.9715 14.1104L9.23605 14.1104C8.95991 14.1104 8.73605 13.8865 8.73605 13.6104L8.73605 0.500656Z" shape-rendering="geometricPrecision" fill="#000000" fill-opacity="0.7" style="fill-rule:evenodd" transform="matrix(6.123233995736766e-17 1 -1 6.123233995736766e-17 15.055337216705084 0.9146583341062069)"></path></g></svg>