<svg width="16" height="16" viewBox="0 0 16 16" shape-rendering="geometricPrecision" xmlns="http://www.w3.org/2000/svg" xmlns:xlink="http://www.w3.org/1999/xlink"><g><g><path d="M0 1C0 0.447715 0.447715 0 1 0L13 0C13.5523 0 14 0.447715 14 1L14 9C14 9.55229 13.5523 10 13 10L1 10C0.447715 10 0 9.55229 0 9L0 1Z" shape-rendering="geometricPrecision" fill="#333333" fill-opacity="0.1" style="fill-rule:evenodd" transform="matrix(1 0 0 1 1.000056266784668 1.9999980926513672)"></path><path d="M6.0042 6.75466C5.72315 6.75466 5.46127 6.70476 5.21855 6.60496C4.97583 6.50515 4.76505 6.36942 4.5862 6.19776C4.40735 6.0261 4.2647 5.8265 4.15825 5.59894C4.05179 5.37139 3.99856 5.12987 3.99856 4.87437C3.99856 4.61888 4.05179 4.37736 4.15825 4.14981C4.2647 3.92226 4.40735 3.72465 4.5862 3.55698C4.76505 3.38931 4.97583 3.25557 5.21855 3.15577C5.46127 3.05597 5.72316 3.00606 6.0042 3.00606C6.27673 3.00606 6.53435 3.05597 6.77707 3.15577C7.01979 3.25557 7.23058 3.38931 7.40943 3.55698C7.58827 3.72465 7.73092 3.92226 7.83738 4.14981C7.94384 4.37736 7.99707 4.61888 7.99707 4.87437C7.99707 5.12987 7.94384 5.37139 7.83738 5.59894C7.73092 5.8265 7.58827 6.0261 7.40943 6.19776C7.23058 6.36942 7.01979 6.50515 6.77707 6.60496C6.53435 6.70476 6.27673 6.75466 6.0042 6.75466ZM15.9941 13.4974L0 13.4974L0 0L15.9941 0L15.9941 1.49705L15.9941 13.4974ZM14.3972 1.49705L1.60967 1.49705L1.60967 10.7548C1.76297 10.5472 1.9333 10.3396 2.12066 10.132C2.30803 9.92441 2.50391 9.73678 2.7083 9.56911C2.9127 9.40144 3.12348 9.26371 3.34065 9.15593C3.55783 9.04814 3.77713 8.99424 3.99856 8.99424C4.26257 8.99424 4.49039 9.01221 4.68201 9.04814C4.87363 9.08407 5.04396 9.12998 5.193 9.18587C5.34204 9.24176 5.48043 9.30363 5.60818 9.3715C5.73593 9.43937 5.87432 9.50124 6.02336 9.55713C6.1724 9.61302 6.3406 9.65893 6.52796 9.69486C6.71533 9.73079 6.94102 9.74876 7.20503 9.74876C7.46904 9.74876 7.69686 9.6749 7.88848 9.52719C8.0801 9.37948 8.25682 9.19385 8.41863 8.97029C8.58045 8.74673 8.74226 8.50721 8.90407 8.25171C9.06589 7.99622 9.24899 7.75669 9.45339 7.53313C9.65779 7.30957 9.90051 7.12394 10.1816 6.97623C10.4626 6.82852 10.8033 6.75467 11.2035 6.75467C11.5442 6.75467 11.8721 6.85247 12.1872 7.04809C12.5023 7.2437 12.794 7.4972 13.0623 7.80859C13.3305 8.11997 13.5775 8.46729 13.8032 8.85053C14.0289 9.23377 14.2269 9.60903 14.3972 9.97631L14.3972 1.49704L14.3972 1.49705Z" shape-rendering="geometricPrecision" fill="#333333" style="fill-rule:evenodd" transform="matrix(1 0 0 1 0 0.9999980926513672)"></path></g></g></svg>