<svg width="16" height="16" viewBox="0 0 16 16" shape-rendering="geometricPrecision" xmlns="http://www.w3.org/2000/svg" xmlns:xlink="http://www.w3.org/1999/xlink"><g><g><path d="M10.595 13.46L2.86344 13.46L2.86344 12.8103C3.20182 12.6915 3.54621 12.5862 3.89512 12.496C4.24252 12.4057 4.617 12.332 5.01854 12.2704L5.01854 1.16703L2.08592 1.16703L0.858731 4.37487L0.279727 4.37487C0.233106 4.07559 0.194004 3.7342 0.162422 3.35371C0.13084 2.97323 0.105274 2.58522 0.081211 2.18668C0.0571485 1.79266 0.0391016 1.40164 0.0240625 1.02266C0.00902345 0.642169 0 0.299278 0 0L13.457 0C13.457 0.299278 13.4479 0.637657 13.4329 1.00912C13.4179 1.3836 13.3983 1.7686 13.3743 2.16412C13.3502 2.56116 13.3276 2.94916 13.3036 3.33116C13.281 3.71315 13.2464 4.06055 13.1983 4.37487L12.5892 4.37487L11.3726 1.16703L8.46399 1.16703L8.46399 12.2704C8.86554 12.3456 9.24001 12.4208 9.58591 12.496C9.93482 12.5697 10.2687 12.6734 10.5935 12.8103L10.5935 13.46L10.595 13.46Z" shape-rendering="geometricPrecision" fill="#FFFFFF" transform="matrix(1 0 0 1 1.2625011205673218 1.2715226411819458)"></path></g></g></svg>