<svg width="17" height="17" viewBox="0 0 17 17" shape-rendering="geometricPrecision" xmlns="http://www.w3.org/2000/svg" xmlns:xlink="http://www.w3.org/1999/xlink"><g><path d="M0 0L10 0L10 10L0 10L0 0Z" shape-rendering="geometricPrecision" fill="#333333" fill-opacity="0.1" style="fill-rule:evenodd" transform="matrix(1 0 0 1 3.40570068359375 3.4999990463256836)"></path><path d="M12.5 11.25L12.5 9L11 9L11 11.25L8.75 11.25L8.75 12.75L10.999 12.75L11 15L12.5 15L12.499 12.75L14.75 12.75L14.75 11.25L12.5 11.25ZM1 12L1 13L2 13L2 14L0 14L1.11022e-16 12L1 12ZM5 13L5 14L3 14L3 13L5 13ZM8 13L8 14L6 14L6 13L8 13ZM1 9L1 11L1.11022e-16 11L1.11022e-16 9L1 9ZM1 6L1 8L1.11022e-16 8L1.11022e-16 6L1 6ZM14 6L14 8L13 8L13 6L14 6ZM1 3L1 5L1.11022e-16 5L1.11022e-16 3L1 3ZM14 3L14 5L13 5L13 3L14 3ZM2 1.08802e-14L2 1L1 1L1 2L1.11022e-16 2L1.11022e-16 1.08802e-14L2 1.08802e-14ZM14 4.44089e-16L14 2L13 2L13 1L12 1L12 0L14 4.44089e-16ZM5 4.44089e-16L5 1L3 1L3 0L5 4.44089e-16ZM8 4.44089e-16L8 1L6 1L6 0L8 4.44089e-16ZM11 4.44089e-16L11 1L9 1L9 0L11 4.44089e-16Z" shape-rendering="geometricPrecision" fill="#333333" style="fill-rule:evenodd" transform="matrix(1 0 0 1 1.40570068359375 1.4999990463256836)"></path></g></svg>