<svg width="16" height="17" viewBox="0 0 16 17" shape-rendering="geometricPrecision" xmlns="http://www.w3.org/2000/svg" xmlns:xlink="http://www.w3.org/1999/xlink"><g><g><path d="M0 0L16 6.08695L8.08626 8.08626L6.08695 16L0 0Z" shape-rendering="geometricPrecision" fill="#333333" fill-opacity="0.1" transform="matrix(1 0 0 1 0 0.4999980926513672)"></path><path d="M9.26795e-16 0L16 6.08695L8.08626 8.08626L6.08695 16L9.26795e-16 0ZM2.40209 2.40209L5.81844 11.3823L6.94122 6.94122L11.3823 5.81844L2.40209 2.40209Z" shape-rendering="geometricPrecision" fill="#333333" style="fill-rule:evenodd" transform="matrix(1 0 0 1 0 0.4999980926513672)"></path><path d="M0 1.59872e-14L7 1.59872e-14L7 1.5L2.4869e-14 1.5L0 1.59872e-14Z" shape-rendering="geometricPrecision" fill="#333333" style="fill-rule:evenodd" transform="matrix(0.7071067811865474 0.7071067811865477 -0.7071067811865477 0.7071067811865474 8.34005470226191 8.097649001307271)"></path></g></g></svg>