<svg width="16" height="16" viewBox="0 0 16 16" shape-rendering="geometricPrecision" xmlns="http://www.w3.org/2000/svg" xmlns:xlink="http://www.w3.org/1999/xlink"><g><path d="M8.22372 9.70185L7.30975 9.70185L7.30975 12.5307L4.77004 12.5307L7.76674 15.5213L10.7634 12.5287L8.22372 12.5287L8.22372 9.70185ZM15.5335 7.76067L12.5368 4.766L12.5368 7.30369L9.70387 7.30369L9.70387 8.21766L12.5368 8.21766L12.5368 10.7553L15.5335 7.76067ZM7.30975 5.81949L8.22372 5.81949L8.22372 2.99063L10.7634 2.99063L7.76674 0L4.77004 2.99265L7.30975 2.99265L7.30975 5.81949ZM5.82556 7.30369L2.99265 7.30369L2.99265 4.766L0 7.76067L2.99669 10.7553L2.99669 8.21766L5.82556 8.21766L5.82556 7.30369Z" shape-rendering="geometricPrecision" fill="#FFFFFF" style="fill-rule:evenodd" transform="matrix(1 0 0 1 0.23327507078647614 0.23933935165405273)"></path><path d="M0 0L4 0L4 4L0 4L0 0Z" shape-rendering="geometricPrecision" fill="#FFFFFF" fill-opacity="0.2" style="fill-rule:evenodd" transform="matrix(0.7071067811865474 0.7071067811865477 -0.7071067811865477 0.7071067811865474 8 5.171570967905183)"></path></g></svg>