<?xml version="1.0" encoding="UTF-8"?>
<svg width="16px" height="16px" viewBox="0 0 16 16" version="1.1" xmlns="http://www.w3.org/2000/svg" xmlns:xlink="http://www.w3.org/1999/xlink">
    <title>纵向拉伸</title>
    <g id="页面-1" stroke="none" stroke-width="1" fill="none" fill-rule="evenodd">
        <g id="画" transform="translate(-602.000000, -244.000000)">
            <g id="纵向拉伸" transform="translate(610.000000, 252.000000) rotate(-270.000000) translate(-610.000000, -252.000000) translate(602.000000, 244.000000)">
                <rect id="矩形备份-193" x="0" y="0" width="16" height="16"></rect>
                <rect id="矩形备份-195" x="1" y="1" width="14" height="14"></rect>
                <path d="M4.12132034,2.5 C4.39746272,2.5 4.62132034,2.72385763 4.62132034,3 C4.62132034,3.27614237 4.39746272,3.5 4.12132034,3.5 L2.62032034,3.5 L2.62132034,5 C2.62132034,5.27614237 2.39746272,5.5 2.12132034,5.5 C1.84517797,5.5 1.62132034,5.27614237 1.62132034,5 L1.62132034,3 C1.62132034,2.72385763 1.84517797,2.5 2.12132034,2.5 L4.12132034,2.5 Z" id="形状结合" fill="#666666" transform="translate(3.121320, 4.000000) rotate(-45.000000) translate(-3.121320, -4.000000) "></path>
                <path d="M13.8786797,2.5 C14.154822,2.5 14.3786797,2.72385763 14.3786797,3 C14.3786797,3.27614237 14.154822,3.5 13.8786797,3.5 L12.3786797,3.499 L12.3786797,5 C12.3786797,5.27614237 12.154822,5.5 11.8786797,5.5 C11.6025373,5.5 11.3786797,5.27614237 11.3786797,5 L11.3786797,3 C11.3786797,2.72385763 11.6025373,2.5 11.8786797,2.5 L13.8786797,2.5 Z" id="形状结合备份-4" fill="#666666" transform="translate(12.878680, 4.000000) rotate(-225.000000) translate(-12.878680, -4.000000) "></path>
                <rect id="矩形" fill="#666666" x="2" y="3.5" width="12" height="1" rx="0.5"></rect>
                <rect id="矩形备份-14" stroke="#666666" fill="#FFFFFF" x="1.5" y="7.5" width="13" height="7" rx="1"></rect>
            </g>
        </g>
    </g>
</svg>